<svg width="123" height="116" viewBox="0 0 123 116" fill="none" xmlns="http://www.w3.org/2000/svg">
<g clip-path="url(#clip0)">
<path d="M76.98 97.89C73.36 101.9 69.19 105.88 64.47 109.83C65.75 109.66 67.03 109.45 68.28 109.21C71.7 108.52 74.99 107.51 78.17 106.13C78.99 105.78 79.79 105.41 80.58 105.03C81.17 105.79 81.83 106.45 82.54 107.01C83.31 107.62 84.13 108.1 84.99 108.46C83.41 109.31 81.79 110.08 80.13 110.8C76.6 112.32 72.97 113.43 69.23 114.19C65.49 114.95 61.62 115.33 57.64 115.33C53.66 115.33 49.82 114.95 46.05 114.19C42.35 113.46 38.79 112.36 35.29 110.87C35.26 110.87 35.19 110.84 35.15 110.8C31.69 109.31 28.4 107.51 25.33 105.47C22.25 103.43 19.41 101.08 16.82 98.48C14.19 95.89 11.87 93.05 9.83 89.97C7.75 86.89 5.99 83.6 4.5 80.15C2.98 76.62 1.87 72.99 1.11 69.25C0.38 65.52 0 61.64 0 57.66C0 53.68 0.38 49.84 1.14 46.07C1.87 42.37 2.97 38.81 4.46 35.31C4.46 35.28 4.49 35.21 4.53 35.17C6.02 31.68 7.82 28.42 9.86 25.35C11.9 22.27 14.25 19.43 16.85 16.84C19.44 14.21 22.28 11.89 25.36 9.85C28.44 7.77 31.72 6.01 35.18 4.52C38.71 3 42.34 1.89 46.08 1.13C49.81 0.38 53.69 0 57.66 0C61.64 0 65.48 0.38 69.25 1.14C72.95 1.87 76.51 2.97 80.01 4.46C80.04 4.46 80.11 4.49 80.15 4.53C83.61 6.02 86.9 7.82 89.97 9.86C93.05 11.9 95.89 14.25 98.48 16.85C101.11 19.44 103.43 22.28 105.47 25.36C107.55 28.44 109.31 31.73 110.8 35.18C112.32 38.71 113.43 42.34 114.19 46.08C114.62 48.2 114.93 50.36 115.12 52.56L109.89 51.17C109.73 49.79 109.52 48.43 109.25 47.08C108.56 43.66 107.55 40.37 106.17 37.19C105.31 35.15 104.34 33.21 103.26 31.34H86.38C89.38 36.47 91.54 41.57 92.85 46.66L87.17 45.15C85.69 40.59 83.46 35.99 80.46 31.34H60.19V40.73C59.83 40.94 59.47 41.19 59.12 41.47C58.84 41.69 58.57 41.93 58.32 42.18C57.98 42.53 57.66 42.9 57.39 43.3C56.95 43.94 56.6 44.65 56.33 45.41C56.06 46.18 55.9 46.95 55.84 47.7C55.79 48.34 55.81 49 55.91 49.65C55.99 50.19 56.11 50.72 56.29 51.24L56.34 51.38C56.38 51.49 56.42 51.6 56.46 51.7C56.52 51.87 56.57 51.97 56.59 52.02L56.61 52.01L60.24 60.18H60.18V83.98H70.8L73.04 89.03H60.19V106.81C65.84 102.17 70.69 97.49 74.73 92.8L76.98 97.89ZM115.14 97.97C114.8 98.31 114.4 98.57 113.98 98.76C113.54 98.96 113.07 99.08 112.6 99.12C112.09 99.16 111.57 99.11 111.07 98.95C110.59 98.8 110.13 98.55 109.72 98.21L98.63 88.8L94.82 98.15C94.5 98.93 94.12 99.65 93.69 100.3C93.25 100.96 92.76 101.53 92.25 101.98C91.84 102.34 91.39 102.65 90.92 102.88C90.45 103.11 89.97 103.26 89.47 103.33C88.89 103.41 88.31 103.37 87.75 103.21C87.21 103.05 86.69 102.79 86.19 102.4C85.79 102.09 85.42 101.69 85.07 101.21C84.75 100.77 84.46 100.25 84.19 99.65C76.97 83.38 68.36 65.87 61.92 49.49C61.84 49.27 61.78 49.05 61.75 48.82C61.72 48.59 61.71 48.36 61.73 48.13C61.75 47.86 61.81 47.6 61.9 47.34C61.99 47.09 62.11 46.84 62.26 46.62C62.34 46.51 62.42 46.4 62.52 46.31C62.6 46.23 62.69 46.15 62.79 46.08C62.97 45.94 63.16 45.82 63.36 45.72L63.41 45.7C63.6 45.61 63.8 45.54 63.99 45.5L64.08 45.48C64.26 45.44 64.44 45.42 64.62 45.41C64.83 45.4 65.03 45.42 65.23 45.45C65.3 45.46 65.37 45.47 65.44 45.48C83.08 49.86 100.82 54.86 118.42 59.53C119.05 59.7 119.61 59.91 120.1 60.15C120.63 60.42 121.08 60.72 121.45 61.06C121.91 61.48 122.26 61.96 122.5 62.47C122.75 63 122.88 63.57 122.89 64.16V64.17C122.9 64.67 122.83 65.17 122.68 65.67C122.53 66.17 122.3 66.65 122 67.12C121.63 67.7 121.15 68.28 120.57 68.81C120.01 69.33 119.35 69.82 118.62 70.27C115.73 71.97 112.85 73.77 109.98 75.51L121.03 84.98C121.43 85.33 121.75 85.74 121.97 86.19L122 86.27C122.21 86.72 122.34 87.19 122.38 87.68C122.42 88.17 122.37 88.68 122.22 89.18C122.08 89.65 121.85 90.11 121.53 90.52C119.84 92.6 117.01 96.24 115.14 97.97ZM112.24 94.34L117.59 88.06L104.59 76.92L104.52 76.85C104.46 76.79 104.39 76.72 104.34 76.66C104.26 76.57 104.19 76.47 104.13 76.36C103.8 75.82 103.73 75.2 103.87 74.63C104.01 74.06 104.37 73.54 104.91 73.22C108.67 71.15 112.55 68.56 116.26 66.33C116.69 66.07 117.07 65.78 117.39 65.49C117.69 65.21 117.94 64.93 118.11 64.66C118.18 64.55 118.23 64.46 118.26 64.37C118.18 64.31 118.09 64.26 117.96 64.2C117.77 64.11 117.52 64.03 117.23 63.95L67.51 50.77L88.39 97.8C88.51 98.06 88.63 98.29 88.76 98.48L88.79 98.53C88.86 98.62 88.92 98.7 88.97 98.75C89.05 98.71 89.13 98.64 89.23 98.55C89.47 98.34 89.71 98.05 89.93 97.71C90.17 97.35 90.39 96.92 90.58 96.44L95.58 84.16L95.63 84.06C95.67 83.98 95.71 83.9 95.75 83.83L95.78 83.78C95.83 83.7 95.89 83.62 95.96 83.54C96.37 83.06 96.94 82.78 97.52 82.74C98.1 82.69 98.7 82.87 99.19 83.28L112.24 94.34ZM50.89 109.83C42.73 102.98 36.19 96.06 31.35 89.04H15.39C16.91 91.12 18.61 93.05 20.44 94.89C22.83 97.28 25.39 99.39 28.19 101.25C30.96 103.12 33.97 104.74 37.22 106.13C37.25 106.16 37.29 106.16 37.32 106.2C40.47 107.51 43.72 108.55 47.11 109.21C48.36 109.45 49.64 109.66 50.91 109.83H50.89V109.83ZM12.07 83.99H28.12C23.66 76.17 21.24 68.22 20.96 60.19H5.12C5.26 62.96 5.57 65.62 6.09 68.25C6.78 71.67 7.78 74.96 9.17 78.14C10.03 80.18 11 82.12 12.07 83.99ZM5.12 55.14H21.07C21.66 47.25 24.29 39.33 28.96 31.34H12.07C11 33.21 10.03 35.14 9.16 37.19C9.13 37.22 9.13 37.26 9.09 37.29C7.78 40.44 6.74 43.69 6.08 47.08C5.57 49.71 5.22 52.37 5.12 55.14ZM15.36 26.29H32.21C37.02 19.37 43.35 12.42 51.24 5.43C49.82 5.6 48.44 5.81 47.09 6.09C43.67 6.78 40.38 7.79 37.2 9.17C33.98 10.55 30.97 12.18 28.17 14.05C25.37 15.92 22.81 18.03 20.42 20.41C18.59 22.24 16.89 24.18 15.37 26.26L15.36 26.29ZM64.1 5.43C72.02 12.42 78.35 19.37 83.13 26.29H99.98C98.46 24.21 96.76 22.28 94.93 20.44C92.54 18.05 89.98 15.94 87.18 14.07C84.41 12.2 81.4 10.58 78.15 9.19C78.12 9.16 78.08 9.16 78.05 9.12C74.9 7.81 71.65 6.77 68.26 6.11C66.88 5.83 65.49 5.63 64.11 5.45V5.43H64.1ZM60.19 8.72V26.29H76.93C72.54 20.48 66.97 14.63 60.19 8.72ZM55.14 106.82V89.04H37.53C42.06 94.99 47.94 100.94 55.14 106.82ZM55.14 83.99V60.19H26.01C26.32 68.18 29.02 76.1 34 83.99H55.14ZM55.14 55.14V31.34H34.87C29.68 39.4 26.78 47.32 26.12 55.14H55.14ZM55.14 26.29V8.72C48.36 14.64 42.79 20.48 38.4 26.29H55.14Z" fill="#FD7014"/>
</g>
<defs>
<clipPath id="clip0">
<rect width="122.88" height="115.33" fill="white"/>
</clipPath>
</defs>
</svg>
